<svg height="128" viewBox="0 0 33.867 33.867" width="128" xmlns="http://www.w3.org/2000/svg"><path d="m7.0406 2.1261-.053748 1.1825h-1.613l-1.3443 5.269 6.1295-.053748-3.2798.69929.1075 1.1287.85997.1075-1.0212 13.495h-1.9892c.0000003 0 .053748-.05364.053748 1.3443 4.5163 1.0216 7.097 1.4518 7.097 1.4518l-9.1943-.05375-.69873 5.0003c9.8929.0771 19.786.03509 29.679 0l-.69873-5.0003-9.1937.05375s2.5807-.43021 7.097-1.4518c0-1.3979.05375-1.3443.05375-1.3443h-1.9892l-1.0218-13.495.86053-.1075.1075-1.1287-3.2798-.69929 6.129.053748-1.3443-5.269h-1.6124l-.054308-1.1825-6.6665.16124-.32305 1.613h-5.8065l-.32249-1.613zm6.4968 5.9901h6.7924v1.3879l.20883.28498 1.7491.019036.76031 13.934s-1.6168.91313-6.1144.91316c-4.4976.000034-6.115-.91316-6.115-.91316l.76087-13.934 1.7485-.019036.20939-.28498zm3.9068 2.37c.66227 1.5227.72833 2.775-.51061 2.3392 0 0-1.5716-2.0686-3.5866-.39583 1.4819-.12001 2.1102.36462 2.1292.85885.019.49424 0 .41655 0 .41655s-2.5093.038-2.8515 2.3761c1.0265-.70334 1.5206-.41823 1.5206-.41823l-.01904.57052s-1.7427 1.7759-1.2295 4.114c.91244-2.129 1.4579-1.8901 1.4579-1.8901l.41823.30457v2.3571s.28299 1.5711 1.6516 2.0654c-.49424-1.5017-.7016-2.408-.35944-2.7501.34216-.34216.86837-.51173.86837-.51173s1.1022 2.3118 3.3066 2.1236c-1.1828-1.2097-1.5593-1.532-1.4249-2.5536.96778.05377 2.7956-.7262 2.5267-2.3123-.7796 1.2366-1.9892.3768-1.9892.3768l.08063-.75304s1.9356-.94091 1.5593-3.3873c-.53766 1.2097-1.0754 1.3713-1.5593.86053-.02688-.86025-.24187-1.6936-.24187-1.6936s-.18816-1.5865-1.7474-2.0973z"/></svg>