<svg enable-background="new 0 0 128 128" viewBox="0 0 128 128" xmlns="http://www.w3.org/2000/svg"><path d="m56.167 106h-49.562s-2.609-1.277 0-5.935 30.371-51.877 30.371-51.877 2.236-2.648 4.658-.226 29.253 27.763 29.253 27.763l-25.713 9.32s-3.726 1.999-1.491 4.608c2.236 2.609 12.484 16.347 12.484 16.347z"/><path d="m48.837 88.513 20 17.487h11.552l11.179-17.487s1.491-3.74 3.726.359 9.503 17.128 9.503 17.128h15.465s3.726-1.277 1.677-5.562-18.632-35.297-18.632-35.297-3.511-5.766-7.144-.179l-4.163 3.735v2.515z"/><path d="m92.127 68.045-12.484 4.658-31.302-22.917 15.659-24.409s4.091-5.403 6.886 0c2.795 5.404 21.241 42.668 21.241 42.668z"/></svg>