<svg id="Layer_1" data-name="Layer 1" xmlns="http://www.w3.org/2000/svg"
    viewBox="0 0 1589.25 1734.32">
    <path class="cls-1"
        d="M165.38,1223c18.77-18.46,41.58-34.34,55.62-55.83,64.25-98.32,126.05-198.22,182.52-287.73,41.75,7.28,66.62,17.62,89.47,14.31,44.17-6.39,105.42-43.93,127.43-27.17,78.75,60,148.39,133.76,211.38,210.45,15.9,19.35-1.83,70-11.12,104.32-10.44,38.65-30.63,74.59-43.37,112.76-24,72-14.86,150.42,50.87,182.47,53.62,26.14,134.56,26.74,192.61,7.23,75-25.21,110.14-108.2,82.73-178.3-36.2-92.61-89.79-183.74-155.94-258-51.71-58-57.17-100.09-24.18-162.67,66-125.24,158.11-220.77,291.06-277.52,20.84-8.89,32.07-39.85,45.08-57.07,63.61,11.06,136.2,19.82,206.3,38,23.8,6.17,41.34,36.08,61.69,55.18,63.86,59.91,127.26,120.31,192.12,179.13,7.52,6.82,23.12,4.9,35,7v37.46c-150.87,163.7-285.57,19.49-421.92-27.24-34.29-11.75-53.51-66.62-90.4-116.08-3.12,34.45-7.34,73-9.72,111.65-.83,13.53,9.51,34.21,3.46,40-71,67.34-12.1,110.77,27.84,157.09,75.52,87.57,154.61,172.29,226.95,262.35,50.82,63.25,45.31,131.09-1.82,198.48-108.64,155.32-255.49,256.69-437.81,307.28-190.44,52.84-439.28-48.89-544-215.21-53.61-85.13-61.49-159.68,1.85-248.3,56.4-78.91,95-171.26,134.53-260.68,24.52-55.49-12.32-83.74-67.18-100.64,59,65.94,19.81,105.53-27.52,143.91-51.18,41.49-101.63,83.86-152.9,125.23-19,15.34-37.58,33.35-59.6,42.51-67.58,28.13-121.86-1.22-171-45.62Z"
        transform="translate(-165.38 -80.24)"></path>
    <path class="cls-1"
        d="M1035.68,80.24l451.91,250.31C1446.27,443.72,1376.76,477.33,1255.75,458c-52.65-8.4-104.84-20.07-156.85-31.9C978.14,398.65,972,390.15,987.67,255c-24.9,34.32-50.28,53.34-48.83,70.09,6,69.32-20.57,118.18-71.38,163.6-11.1,9.92-.76,60,15,79.29,33,40.32,76.2,72.46,116,108.72L840.3,910.45c-78-78.51-156.18-152.68-229.12-231.55C518.45,578.64,529.3,477.52,638.89,376l-76.82-7.19-9-19.28,256.1-140.79-67.33-28.65-1.89-23L1037.46,138,997.84,80.24Z"
        transform="translate(-165.38 -80.24)"></path>
</svg>