<svg id="Layer_1" data-name="Layer 1" xmlns="http://www.w3.org/2000/svg" viewBox="0 0 80 80">
    <path class="cls-1"
        d="M25.71,39.05a7.87,7.87,0,0,1,1.65-4.6l.09.75a.78.78,0,0,0,.2.43L31,39.19a.74.74,0,0,0,.8.2,9,9,0,0,0,3.13-1.74,8,8,0,0,0,1.6-2.44.78.78,0,0,0-.1-.78l-3.31-4.1a.74.74,0,0,0-.53-.28L32,30c0-.26,0-.25.09-.54a14.65,14.65,0,0,1,6.38-1.1.75.75,0,0,0,.78-1,19.92,19.92,0,0,0-4.51-7.7,15.66,15.66,0,0,0-7.06-4.88.76.76,0,0,0-1,.68c-.14,1.94-.51,6.46-.89,6.46s-.59,0-.88.06a.77.77,0,0,1-.79-.5l-.31-.85a1,1,0,0,1,0-.24c0-.85-.13-5.84-.24-6.29s.09-1-1.58-1.45a36.32,36.32,0,0,0-7.18-1,.75.75,0,0,0-.79.73c-.08,2.1-.23,7.92.32,8.47s4,.73,5,1.28a9.76,9.76,0,0,1,1.9,1.8.74.74,0,0,1,.18.49v1.32c-1.48,1.6-3.72,3.34-6.42,3.17C10,28.61,7,22.38,7,22.38S2.15,36.22,8.56,43.06s15.13,8.76,23.26,3.2C31.82,46.26,25.39,43.56,25.71,39.05Z"></path>
    <path class="cls-1"
        d="M53.74,57.71,37.35,37.07a6.1,6.1,0,0,1-4.43,3.47l16.8,19.94S52.91,60.51,53.74,57.71Z"></path>
    <path class="cls-1"
        d="M51.9,66.4c1.72,1.76,5.2,2.37,6.37,1.67s1.47-4.07.84-5.81a5,5,0,0,0-4.46-3.37,4,4,0,0,1-4,2.77S50.33,64.79,51.9,66.4Z"></path>
    <path class="cls-1"
        d="M54.29,39.05a7.87,7.87,0,0,0-1.65-4.6l-.09.75a.78.78,0,0,1-.2.43L49,39.19a.74.74,0,0,1-.8.2,9,9,0,0,1-3.13-1.74,8,8,0,0,1-1.6-2.44.78.78,0,0,1,.1-.78l3.31-4.1a.74.74,0,0,1,.53-.28l.64-.05c0-.26,0-.25-.09-.54a14.65,14.65,0,0,0-6.38-1.1.75.75,0,0,1-.78-1,19.92,19.92,0,0,1,4.51-7.7,15.66,15.66,0,0,1,7.06-4.88.76.76,0,0,1,1,.68c.14,1.94.51,6.46.89,6.46s.59,0,.88.06a.77.77,0,0,0,.79-.5l.31-.85a1,1,0,0,0,0-.24c0-.85.13-5.84.24-6.29s-.09-1,1.58-1.45a36.32,36.32,0,0,1,7.18-1,.75.75,0,0,1,.79.73c.08,2.1.23,7.92-.32,8.47s-4,.73-4.95,1.28a9.76,9.76,0,0,0-1.9,1.8.74.74,0,0,0-.18.49v1.32c1.48,1.6,3.72,3.34,6.42,3.17C70,28.61,73,22.38,73,22.38s4.86,13.84-1.55,20.68-15.13,8.76-23.26,3.2C48.18,46.26,54.61,43.56,54.29,39.05Z"></path>
    <path class="cls-1"
        d="M26.26,57.71,42.65,37.07a6.1,6.1,0,0,0,4.43,3.47L30.28,60.48S27.09,60.51,26.26,57.71Z"></path>
    <path class="cls-1"
        d="M28.1,66.4c-1.72,1.76-5.2,2.37-6.37,1.67s-1.47-4.07-.84-5.81a5,5,0,0,1,4.46-3.37,4,4,0,0,0,4,2.77S29.67,64.79,28.1,66.4Z"></path>
</svg>