<svg xmlns="http://www.w3.org/2000/svg" viewBox="0 0 100 100">
    <path
        d="M93.55,49.1,72.44,12.54a2,2,0,0,0-1.71-1H28.51a2,2,0,0,0-1.71,1L5.7,49.1a1.93,1.93,0,0,0,0,2L26.8,87.64a2,2,0,0,0,1.71,1H70.73a2,2,0,0,0,1.71-1L93.55,51.07A2,2,0,0,0,93.55,49.1Zm-26.23-27L81.69,47.69l-8.91-4.4A24.17,24.17,0,0,0,56.42,26.93L53.51,21H65.6A2,2,0,0,1,67.32,22.05ZM33.86,56.89A17.17,17.17,0,0,1,56.43,34.33a16.63,16.63,0,0,1,8.95,9A17.17,17.17,0,0,1,42.82,65.85,16.6,16.6,0,0,1,33.86,56.89ZM31.93,22.05a2,2,0,0,1,1.72-1H45.73l-2.91,5.89A24.19,24.19,0,0,0,26.46,43.29l-8.91,4.4Zm.84,56.12L17.65,52.53l8.81,4.36A24.21,24.21,0,0,0,42.82,73.25l2.91,5.89H34.47A2,2,0,0,1,32.77,78.17Zm34.55,0a2,2,0,0,1-1.72,1H53.51l2.91-5.89A24.19,24.19,0,0,0,72.78,56.89l8.91-4.41Z"></path>
</svg>