<svg enable-background="new 0 0 128 128" viewBox="0 0 128 128" xmlns="http://www.w3.org/2000/svg"><path d="m64 11.689 11.582 14.286 2.297 11.601 12.834-12.978 9.186 12.289 5.674 22.559s4.188 2.431 13.915-4.324c0 0 5.404 7.401-10.132 19.695l3.242 16.183h4.593l.405 11h-4.728l-15.941 15.59-13.779-13.59h-38.296l-13.78 13.59-15.941-15.59h-4.728l.405-11h4.593l3.242-16.182c-15.535-12.294-10.131-19.203-10.131-19.203 9.727 6.755 13.915 4.078 13.915 4.078l5.674-22.682 9.186-12.351 12.834 12.947 2.297-11.617zm7.8 87.311h5.944c.135-6-2.252-10.929-2.252-10.929s1.9-.623 2.636-.408c.969.282 1.732.703 2.947.252 1.216-.45 2.207-3.097 2.702-3.908s-2.342-3.357-2.342-3.357c0-1.576 6.575-2.818 6.575-13.626 0-20.624-23.236-20.351-23.236-20.351s-23.236-.302-23.236 20.322c0 10.808 6.575 12.007 6.575 13.584 0 0-2.837 2.469-2.342 3.279.495.811 1.486 3.306 2.702 3.756s1.979-.271 2.947-.553c.736-.215 2.636 1.009 2.636 1.009s-2.385 4.93-2.25 10.93h14.59s-.766-5.494 2.769-5.494 2.635 5.494 2.635 5.494zm-4.233-26.226 4.098 6.349s7.499-1.742 8.151-7.498c.405-3.58-1.897-3.405-3.738-3.265-2.363.181-7.475 2.433-8.511 4.414zm-13.508-4.413c-1.841-.14-4.143-.315-3.738 3.265.652 5.756 8.151 7.498 8.151 7.498l4.098-6.349c-1.036-1.982-6.148-4.234-8.511-4.414zm11.222 10.002s-3.299.637-3.479 9.637h6.889c-.179-9-3.41-9.637-3.41-9.637z"/></svg>