<svg height="128" viewBox="0 0 33.866666 33.866668" width="128" xmlns="http://www.w3.org/2000/svg"><path d="m28.607 4.1073c-13.575-.056292-16.06 8.3971-22.936 12.347-2.493.73236-1.7093-4.9556-1.7093-4.9556-3.4177 4.6383-2.9783 7.4211 0 9.9111.83001-2.0994 1.8554-1.6598 2.9783-.63451 1.123 1.0253 1.7091 2.9292-.78093 5.2728-2.49 2.3436-2.8807 3.7109-2.8807 3.7109s2.8807-1.5626 6.0542-.73263c-.43942-1.7088-.14677-6.0541 4.0033-6.5423 4.1501-.48824 12.206 5.0867 12.206 5.0867s-6.4503-7.8478-13.553-9.6991c6.6183-.04464 9.8918 4.0145 9.8918 4.0145-.12206-.75678-.96725-1.9674-.29285-3.2102.93873-1.7299 5.2243-1.758 8.9838-2.2462-1.6112-1.123-10.156-2.4902-14.257-2.6855 2.2459-1.3183 9.423-.29285 9.423-.29285s-.82969-1.2694-.97616-3.1735 2.514-2.6652 3.5152-2.7343c0 0-.49755-.26935-2.2243-.61112.91771-1.0526 3.4483-2.418 6.2546-2.6204-1.3191-.13492-2.5494-.20063-3.6998-.2054zm-8.0228 3.3001c.33877-.00935.3198.8694.3198.8694l-1.7332 1.1963s-.83008-.75703-1.3427-.78144c-.51265-.024412-.31725-.39047-.31725-.39047s2.3924-.48848 2.9051-.83025c.06408-.042721.11989-.062217.16829-.063552zm-3.293 2.6514s.31721.14636.43927.34166c.12206.19529.6594-.14655.70823.24404.04882.39059-.36645.39095-.73263.43978-.36618.04882-.73204-.12241-1.0006-.48859-.26853-.36618.5857-.53689.5857-.53689z"/></svg>