<svg width="30" height="30" viewBox="0 0 30 30" fill="none" xmlns="http://www.w3.org/2000/svg"><path d="M2.00367 11.2138V10.4625C2.11735 10.424 2.22859 10.3752 2.34961 10.3765C2.83613 10.3816 3.32266 10.3559 3.80918 10.3919C3.88986 10.3983 3.96809 10.3868 4.00476 10.302C4.04999 10.198 4.11234 10.094 4.116 9.97837C4.12823 9.59952 4.12456 9.22323 4.2248 8.84952C4.26881 8.68642 4.27736 8.50919 4.32993 8.34095C4.67587 7.2288 5.40199 6.45568 6.32858 5.86621C6.69041 5.63505 7.07914 5.46039 7.4801 5.30756C8.01796 5.10208 8.54604 4.87092 9.10347 4.73479C9.89682 4.54087 10.6926 4.35722 11.508 4.29301C11.5789 4.28787 11.6498 4.26989 11.7182 4.25063C11.8612 4.21082 12.0067 4.18513 12.1558 4.18256C12.2854 4.17999 12.4125 4.15688 12.5348 4.11193C12.6253 4.07854 12.7194 4.06826 12.8159 4.06184C13.1105 4.04515 13.4064 4.02845 13.7022 4.0246C14.9601 4.0079 16.2192 3.93599 17.4697 4.15559C17.944 4.23907 18.4232 4.29429 18.8975 4.37905C19.5661 4.49849 20.2152 4.70525 20.8705 4.88248C21.3704 5.01732 21.8582 5.19198 22.3337 5.39361C22.8495 5.61193 23.3532 5.86621 23.8373 6.16287C24.4069 6.51219 24.8934 6.94626 25.2565 7.52803C25.4961 7.91202 25.6917 8.31013 25.7931 8.76347C25.8848 9.17315 25.9789 9.58154 25.9899 10.0041C25.9997 10.3752 25.9912 10.3752 26.3506 10.3765C26.8187 10.3765 27.2857 10.3752 27.7539 10.3778C27.9434 10.3791 27.991 10.4317 27.9959 10.6282C27.9996 10.7489 27.9971 10.8684 27.9959 10.9891C27.9959 11.2613 27.9593 11.2999 27.6964 11.3011C27.1806 11.3024 26.6659 11.3011 26.1501 11.3024C25.9606 11.3024 25.9117 11.3397 25.8873 11.54C25.8604 11.7648 25.809 11.9831 25.7516 12.2001C25.6489 12.5905 25.5975 12.9963 25.4411 13.3713C25.3738 13.5332 25.4166 13.5833 25.5914 13.5768C26.331 13.5499 27.0706 13.5717 27.8101 13.564C27.9152 13.564 27.9666 13.6154 27.9825 13.7207C28.0094 13.9005 27.9959 14.0803 27.9971 14.2613C27.9971 14.4707 27.9776 14.4912 27.7734 14.4912C27.0571 14.4912 26.342 14.4912 25.6257 14.4912C25.4875 14.4912 25.3494 14.4912 25.2113 14.4964C25.1086 14.5002 25.0193 14.5413 24.9961 14.6582C24.935 14.9651 24.792 15.2399 24.6844 15.5289C24.5585 15.8692 24.4204 16.2057 24.2737 16.537C24.1636 16.7849 24.1551 16.7797 24.4191 16.7797C25.5266 16.7797 26.6329 16.7785 27.7404 16.7785C27.9641 16.7785 27.9959 16.8118 27.9984 17.0481C27.9996 17.1779 27.9984 17.3089 27.9984 17.4386C27.9984 17.6967 27.9898 17.7057 27.738 17.7057C26.4826 17.7057 25.2284 17.7083 23.9729 17.7031C23.814 17.7031 23.7114 17.7455 23.6527 17.9073C23.4925 18.3504 23.2016 18.719 23.0023 19.1402C22.9204 19.3148 22.8141 19.4767 22.72 19.6449C22.6711 19.7322 22.5354 19.8054 22.5794 19.9017C22.632 20.0186 22.7774 19.9634 22.8826 19.9634C24.5047 19.966 26.1281 19.9647 27.7502 19.966C27.9544 19.966 27.9935 20.0045 27.9984 20.2177C28.002 20.3833 27.9984 20.5477 27.9984 20.7134C27.9984 20.811 27.9507 20.8624 27.8578 20.8636C27.7527 20.8649 27.6475 20.8662 27.5424 20.8662C25.7723 20.8662 24.0011 20.8675 22.231 20.8624C22.0232 20.8624 21.8838 20.933 21.7726 21.1218C21.6198 21.3799 21.4401 21.6226 21.2702 21.8705C20.8154 22.5345 20.3081 23.1522 19.7996 23.7699C19.516 24.1141 19.2349 24.4634 18.9097 24.7665C18.642 25.0156 18.3804 25.2712 18.1139 25.5216C17.4844 26.1136 16.7864 26.5683 15.9673 26.829C14.9943 27.1385 14.0653 27.0139 13.1717 26.5683C12.4248 26.1958 11.7781 25.6629 11.1926 25.0516C10.6572 24.4929 10.1694 23.8893 9.69023 23.2793C9.17681 22.6269 8.70007 21.9437 8.27345 21.2232C8.12431 20.9715 7.93973 20.8547 7.64146 20.8572C5.96674 20.8701 4.29203 20.8636 2.6161 20.8636C2.41073 20.8636 2.20537 20.8714 2.00244 20.8341C2.00244 20.5541 2.00244 20.2729 2.00244 19.9929C2.14547 19.9839 2.28727 19.9672 2.43029 19.9672C4.01332 19.966 5.59635 19.9672 7.17938 19.9672C7.22706 19.9672 7.27473 19.9672 7.3224 19.966C7.37008 19.9634 7.42142 19.9634 7.44465 19.9082C7.46543 19.8581 7.43242 19.8234 7.40553 19.7874C7.19527 19.5011 7.03025 19.1864 6.87378 18.8641C6.7222 18.552 6.57062 18.2412 6.39948 17.9394C6.30291 17.7699 6.17944 17.7031 5.99119 17.7044C4.77978 17.7108 3.56958 17.707 2.35817 17.7083C2.23837 17.7083 2.1198 17.7044 2.00244 17.6813V16.8696C2.1198 16.7913 2.24937 16.7772 2.38506 16.7797C2.65155 16.7849 2.91926 16.7797 3.18574 16.7797C4.01577 16.7797 4.84579 16.781 5.67459 16.7797C5.84939 16.7797 5.87384 16.7399 5.79927 16.5755C5.73571 16.4356 5.65136 16.3059 5.59635 16.162C5.4081 15.6702 5.21007 15.1809 5.06827 14.671C5.03037 14.5349 4.95947 14.4886 4.83112 14.4912C4.5304 14.4964 4.22969 14.4976 3.9302 14.4912C3.28721 14.4797 2.64299 14.5246 2 14.463V13.6218C2.28482 13.5383 2.57576 13.5678 2.86547 13.5666C3.42289 13.564 3.98032 13.5666 4.53774 13.5666C4.5573 13.5666 4.57563 13.5666 4.59519 13.5666C4.66487 13.564 4.6881 13.528 4.66854 13.4587C4.59519 13.2005 4.52551 12.9411 4.44728 12.6843C4.33726 12.3208 4.27859 11.9458 4.21013 11.5734C4.16857 11.3499 4.13801 11.305 3.91431 11.305C3.40456 11.305 2.89481 11.3024 2.38506 11.305C2.24815 11.305 2.1198 11.2896 2 11.2164L2.00367 11.2138ZM18.3009 13.2327C18.2814 13.5576 18.2606 13.8928 18.241 14.2267C18.1848 15.2091 17.8315 16.0914 17.4269 16.9595C17.2264 17.3898 16.9074 17.7237 16.636 18.0974C16.1617 18.7472 15.6495 19.3598 15.0395 19.8748C14.6263 20.2241 14.1887 20.5374 13.7389 20.8315C13.0238 21.299 12.2842 21.7125 11.4554 21.9219C11.3686 21.9437 11.2158 21.927 11.2207 22.0362C11.2256 22.1453 11.3723 22.1633 11.475 22.1851C11.4933 22.189 11.5129 22.1903 11.5324 22.1928C11.7549 22.216 11.9798 22.2327 12.2011 22.2648C13.1093 22.397 14.0054 22.3855 14.8904 22.0914C15.3952 21.9244 15.9111 21.7896 16.3903 21.5494C17.345 21.0704 18.1787 20.4154 18.8852 19.5922C19.3229 19.0824 19.7092 18.5276 20.0062 17.9099C20.3729 17.1458 20.6908 16.3649 20.802 15.5083C20.8106 15.4428 20.8093 15.3542 20.8863 15.3311C20.9572 15.3106 20.9927 15.385 21.0367 15.4274C21.3228 15.7164 21.5367 16.0567 21.7029 16.433C21.7274 16.4895 21.7518 16.5678 21.8264 16.5627C21.9046 16.5576 21.9303 16.4805 21.9474 16.4124C22.1137 15.7832 22.2579 15.15 22.2481 14.4925C22.242 14.0469 22.2017 13.6038 22.143 13.162C22.077 12.674 21.9865 12.1924 21.8129 11.7352C21.6883 11.4052 21.5244 11.0918 21.3826 10.7695C20.9206 9.72024 20.2702 8.81741 19.4158 8.09309C18.4476 7.27246 17.3389 6.77803 16.0994 6.61621C15.9246 6.59309 15.7485 6.57511 15.5725 6.55842C15.5199 6.55328 15.4613 6.55842 15.4368 6.61749C15.4099 6.68299 15.4637 6.71638 15.5028 6.75234C15.5273 6.77546 15.5542 6.79857 15.5823 6.81527C15.916 7.02332 16.2069 7.28787 16.504 7.54986C17.0015 7.98779 17.5125 8.40774 17.9354 8.92786C18.1799 9.22837 18.488 9.48265 18.6591 9.83453C19.0185 10.5717 19.4488 11.2806 19.6273 12.1038C19.6383 12.1539 19.6908 12.2142 19.6346 12.2541C19.5833 12.2913 19.538 12.2297 19.4965 12.2014C19.1224 11.9356 18.7239 11.7249 18.2924 11.5824C18.2288 11.5618 18.164 11.5259 18.1066 11.5914C18.0552 11.6505 18.0601 11.7224 18.087 11.7892C18.2679 12.2489 18.263 12.7382 18.2997 13.2314L18.3009 13.2327ZM8.55949 14.6222C8.55949 14.6928 8.55705 14.7622 8.55949 14.8328C8.56071 14.8816 8.5546 14.9446 8.60716 14.9651C8.67318 14.9895 8.69518 14.9227 8.72452 14.8791C8.88099 14.6453 9.03501 14.4103 9.19148 14.1766C9.41763 13.8401 9.68045 13.5357 9.94693 13.2352C10.0557 13.1119 10.1034 13.1209 10.1865 13.2648C10.2684 13.406 10.3467 13.5499 10.4212 13.695C10.7036 14.2472 10.9799 14.8046 11.129 15.4146C11.2818 16.0439 11.464 16.6693 11.4566 17.3307C11.4566 17.4347 11.4798 17.5374 11.5935 17.5683C11.9126 17.6556 12.239 17.7506 12.5654 17.7224C13.3526 17.6517 14.1068 17.4463 14.7743 16.9711C15.7791 16.2558 16.4759 15.3247 16.6617 14.0276C16.7387 13.4921 16.6446 12.9822 16.4991 12.4762C16.4673 12.3671 16.416 12.263 16.3671 12.1603C16.3414 12.1064 16.3011 12.0563 16.2363 12.0563C16.1629 12.0563 16.1495 12.1269 16.1299 12.1809C16.0003 12.5417 15.7913 12.8512 15.5676 13.1517C15.1031 13.7759 14.5065 14.2112 13.8281 14.5349C13.7169 14.5875 13.6447 14.5618 13.6007 14.445C13.5873 14.4077 13.5738 14.3705 13.5604 14.332C13.1619 13.2506 12.6424 12.2515 11.7879 11.4822C11.6705 11.3769 11.6705 11.3255 11.7854 11.2138C11.9358 11.0674 12.1033 10.9428 12.2487 10.7887C12.7866 10.2185 13.443 9.89232 14.1887 9.73565C15.0016 9.56484 15.7925 9.70097 16.5834 9.8859C17.0614 9.99763 17.5149 10.1774 17.9489 10.415C17.9782 10.4317 18.0198 10.4728 18.0503 10.4291C18.076 10.3906 18.0369 10.3547 18.0124 10.3251C17.8535 10.1325 17.6946 9.93856 17.5333 9.7472C17.29 9.45825 17.0345 9.18342 16.7485 8.93813C16.339 8.58753 15.8744 8.3294 15.438 8.02503C14.6166 7.45226 13.6973 7.14147 12.7328 6.97452C12.0935 6.86407 11.4517 6.84609 10.8161 7.01433C10.7427 7.03359 10.6278 7.02075 10.6205 7.12606C10.6144 7.22109 10.7244 7.2288 10.7904 7.25833C11.1315 7.40602 11.4261 7.62049 11.6718 7.91073C11.7414 7.99292 11.7854 8.07255 11.6767 8.16373C11.4334 8.36664 11.2244 8.60808 11.0202 8.85337C10.1902 9.84609 9.56799 10.9724 9.07657 12.1821C8.76119 12.9591 8.62672 13.7823 8.56316 14.6209L8.55949 14.6222Z" fill="black"></path></svg>