<svg height="128" viewBox="0 0 33.867 33.867" width="128" xmlns="http://www.w3.org/2000/svg"><path d="m29.573 4.5549c-10.708-.044404-12.668 6.6238-18.092 9.74-1.9665.5777-1.3482-3.9093-1.3482-3.9093-2.696 3.6588-2.3493 5.8539 0 7.8181.65473-1.6561 1.4634-1.309 2.3492-.50023.88581.80878 1.3482 2.3108-.61598 4.1594-1.9642 1.8487-2.2727 2.927-2.2727 2.927s2.2726-1.2325 4.7759-.57774c-.34662-1.348-.11571-4.7758 3.1579-5.1609 3.2737-.38514 9.6284 4.0127 9.6284 4.0127s-5.0882-6.1904-10.691-7.6507c5.2206-.03521 7.8031 3.1667 7.8031 3.1667-.09628-.59696-.76298-1.5523-.23099-2.5327.74049-1.3646 4.1208-1.3863 7.0864-1.7715-1.2709-.88581-8.0112-1.9647-11.246-2.1187 1.7716-1.0399 7.4331-.23099 7.4331-.23099s-.65444-1.0012-.76998-2.5032 1.9832-2.1025 2.773-2.157c0 0-.39229-.21255-1.7544-.48214.72391-.8303 2.7199-1.9074 4.9335-2.0671-1.0405-.10643-2.0112-.15798-2.9187-.16175zm-14.651.21342c-.08262.00467-.16569.018386-.24856.041341l-12.384 3.4303c-.66297.18364-1.0433.88344-.87437 1.5472l4.7279 18.577c.16893.66375.85632 1.089 1.5193.90537l12.384-3.4303c.66297-.18364 1.0438-.88396.87488-1.5477l-1.1684-4.5915-1.0154-.19224 1.2583 5.0193c.04715.18525-.05327.35044-.20412.39222l-12.384 3.4298c-.15085.041786-.29237-.034888-.33951-.22014l-4.7279-18.577c-.047149-.18525.053268-.35044.20412-.39222l12.384-3.4303c.15085-.041785.29236.035408.33951.22066l1.1684 3.7166.69815-.62425-.94154-3.328c-.1267-.49781-.54479-.86115-1.0258-.93431-.080165-.012192-.16233-.016559-.24495-.011885zm8.3225 2.3895c.26723-.00738.25218.68626.25218.68626l-1.3674.94361s-.65446-.59724-1.0588-.6165c-.40439-.019257-.25063-.30799-.25063-.30799s1.8875-.38566 2.2918-.65526c.05055-.033699.09463-.049073.13281-.050126zm-9.1581.11937c-.0565.00346-.11374.013456-.17053.029973l-9.5999 2.7916c-.45436.13214-.70404.62171-.59118 1.0873l3.6654 15.12c.11286.46556.57814.77086 1.0325.63872l9.6004-2.7916c.45436-.13214.70352-.62171.59066-1.0873l-.9002-3.5941-.45682.0894.8723 3.622c.05466.22546-.06892.43958-.24546.49093l-9.5999 2.7921c-.17654.051343-.3541-.052041-.40876-.2775l-3.6654-15.12c-.054655-.22546.06892-.43958.24546-.49093l9.6004-2.7921c.17654-.051342.3541.052042.40876.2775l.68471 2.6861.38551-.38654-.58601-2.4169c-.08465-.34917-.36721-.60848-.69505-.66042-.05464-.00866-.11041-.011729-.16691-.00827zm6.5603 1.9725s.25047.11518.34675.26923.5201-.11536.55862.19275c.03851.30811-.28941.30823-.57826.34675-.28885.03851-.57727-.096653-.7891-.38551-.21182-.28885.46199-.42323.46199-.42323z"/></svg>