<svg enable-background="new 0 0 128 128" height="128" viewBox="0 0 128 128" width="128" xmlns="http://www.w3.org/2000/svg"><path d="m99.016 83.249c.129-1.68-3.101-3.876-4.135-5.814s3.359-15.118 3.359-15.118c-.775-.258-7.494-2.713-7.753-8.011-.258-5.298 6.073-6.719 6.073-6.719-10.595-4.522-19.123-27.909-19.123-27.909 2.067 8.786 3.23 22.224-.129 30.106-3.36 7.882-6.848 2.197-7.494 1.421s-1.292-6.073.258-9.691c1.551-3.618 2.584-4.005 3.876-13.696s-5.685-19.898-5.685-19.898c3.231 21.19-4.263 19.64-4.263 19.64s-7.494 1.551-4.264-19.64c0 0-6.977 10.208-5.685 19.898 1.292 9.691 2.326 10.078 3.876 13.696 1.551 3.618.904 8.916.258 9.691s-4.135 6.461-7.494-1.421-2.197-21.32-.129-30.106c0 0-8.528 23.387-19.123 27.909 0 0 6.331 1.421 6.073 6.719s-6.977 7.753-7.753 8.011c0 0 4.393 13.179 3.359 15.118-1.034 1.938-4.264 4.135-4.135 5.814.129 1.68 6.461 22.87 7.623 24.421l-5.039 4.522s11.241 8.14 13.438 7.882 12.017-11.629 12.792-13.438.129-2.843-1.163-4.264-4.393-5.298-4.393-5.298 7.624-9.819 11.759-10.078c4.135.258 11.758 10.078 11.758 10.078s-3.101 3.876-4.393 5.298c-1.292 1.421-1.938 2.455-1.163 4.264s10.595 13.179 12.792 13.438c2.197.258 13.438-7.882 13.438-7.882l-5.039-4.522c1.162-1.55 7.494-22.741 7.623-24.421zm-44.448 1.809c-2.132.646-7.494 2.843-10.983 0s-5.556-13.179-5.298-16.151.646-2.455 1.551-1.421l15.634 14.472c0-.001 2.205 2.158-.904 3.1zm29.847 0c-3.489 2.843-8.851.646-10.983 0-3.109-.942-.904-3.101-.904-3.101l15.634-14.472c.904-1.034 1.292-1.551 1.551 1.421.258 2.973-1.809 13.31-5.298 16.152z"/></svg>