<svg enable-background="new 0 0 128 128" viewBox="0 0 128 128" xmlns="http://www.w3.org/2000/svg"><path d="m96.92 97.413-4.277-13.028c1.592-2.26 2.925-4.714 3.96-7.32l22.487-13.425-22.758-13.408c-.941-2.233-2.108-4.347-3.466-6.319l3.755-14.792-14.339 4.707c-1.707-1.057-3.511-1.97-5.395-2.729l-13.247-22.189-13.019 22.098c-2.123.839-4.144 1.875-6.043 3.088l-16.25-4.677 4.83 16.452c-.931 1.563-1.742 3.206-2.428 4.912l-21.82 12.857 21.545 12.863c.732 1.942 1.63 3.801 2.676 5.563l-4.503 15.646 15.042-4.416c2.154 1.471 4.481 2.704 6.94 3.676l13.03 22.118 13.258-22.207c2.071-.836 4.044-1.861 5.899-3.055zm-49.192-15.152c-.297-.404-.73-1.866-.73-1.866l-.812-1.704s-.73-1.217.812-.974 7.141 2.434 10.224 2.516c3.084.081 4.707-1.542 5.275-1.704s3.895-1.461 4.869-1.623 6.979-3.836 7.871-12.67c.893-8.834-7.06-14.027-11.604-14.108 0 0-2.84-.081-3.489.325s-4.869 2.353-6.735 2.597c0 0-1.542 1.461-1.298 3.246.243 1.785.243 7.93 6.735 7.941 0 0 1.55-.837 1.384-6.904 0 0 8.08-.672 8.29 6.904s-7.24 8.625-11.857 8.416-14.377-6.613-13.642-16.791l.569-3.625 1.623-1.866s3.733-7.547 12.253-9.819c0 0 .73-1.217 1.623-1.217s1.623.974 2.921 1.136 1.785-1.217 3.002-1.136 1.298.974 2.597 1.217c1.298.243 7.628.974 12.74 7.952 0 0 .243 1.785.974 2.11.73.325 2.434 1.055 2.678 1.623.243.568 1.948 6.654 1.785 9.251s-.893 14.688-8.926 18.42l-.162 2.191s-6.005 5.356-15.175 4.707c-9.169-.65-11.638-1.615-13.795-4.545z"/></svg>