<svg id="Layer_1" data-name="Layer 1" xmlns="http://www.w3.org/2000/svg" viewBox="0 0 80 80">
    <path class="cls-1"
        d="M10,17.34l8,3.87a1,1,0,0,1,.63,1.2A16.8,16.8,0,0,0,19,27.66c.4.94,2.06,3.07,2.06,3.87l3.16-1.84S27.3,26,28.5,25.42l.73-6.25a26.14,26.14,0,0,0-3.31-2.39c-1.38-.47-6-2-6-2Z"></path>
    <path class="cls-1"
        d="M47.88,21l1.27,3.43a12.57,12.57,0,0,1,5,5.12L58.55,31l.9-.54a23.56,23.56,0,0,1,2.26-3.37c.66-.57,2.4-7.23,2.4-7.23L62.53,13.6l-1.05.59L58.58,20l-5.75-.3Z"></path>
    <path class="cls-1"
        d="M39.19,29.49s-4.64,11.63-3.83,13.9l.44,1.73s3.53,6.36,3.83,6.61.6-.16.6-.16l3-6.25s-1-8.59-1-9.57C42.21,35.75,39.8,29.42,39.19,29.49Z"></path>
    <path class="cls-1"
        d="M54.67,49.67a14.58,14.58,0,0,1-6.51,7.08,31.77,31.77,0,0,0,2.06,4.34c.55.58,6,3.68,6,3.68a38.6,38.6,0,0,1,4.47-.33c1.29.07,5.31-.15,5.31-.15a16.48,16.48,0,0,0-2.51-2.64,47.48,47.48,0,0,1-3.7-3.29L60,53.75l-2.15-5.36A13.87,13.87,0,0,1,54.67,49.67Z"></path>
    <path class="cls-1"
        d="M17.1,67.69s1.38-4.62,3.25-6c0,0,4.45-1,6.38-1.62a17,17,0,0,0,4-2l-.46-1.8s-4.06-2.8-4.62-4.41l-5.41-1.19s-.81,0-1.05.59S15.86,59,15.86,59,16.17,66.21,17.1,67.69Z"></path>
    <path class="cls-1"
        d="M70.16,35.85l-6.57-2.64L53.41,31.79s-2.66-4.51-6.19-6.49L44,16.21l-3.82-4.06,2.37-8.74S35.65,8,34.94,8.62s-3,6.6-3,6.6L30.51,26.11S27.27,28.44,26.16,31l-8.79,5a21.37,21.37,0,0,0-4.6,4.84S6.37,40.44,4.66,39l.3,1.2s2.69,3.39,2.92,4.61c0,0,3.18,1.82,5.25,3.06s7.13.82,7.13.82l6,1.27s3.74,4.56,5.88,4.9L35.56,65l4.08,3.19-.07,1-.11,7.45A5,5,0,0,0,41,75.33c.6-.79,4.61-5.08,5.52-5.31,0,0,1.39-5.86,1.48-6.44l-2.11-8s4.14-1.29,8-7.69c0,0,8-2.49,9.52-3.53l5.26-3.48,6.29.88ZM53.57,40.61c-1.16,7.08-4.47,10.07-6.08,11.6s-6,2.87-8.35,3.23-8.27-3.33-10.64-6.08-3.41-9.43-3.41-9.43l.87-3.1c1.19-4.13,1.55-4.3,4.22-7.61S38.84,25,38.84,25c10.24.74,12.89,7.73,12.89,7.73C53.18,35.6,53.57,40.61,53.57,40.61Z"></path>
</svg>