<svg height="128" viewBox="0 0 33.866666 33.866668" width="128" xmlns="http://www.w3.org/2000/svg"><path d="m12.159 4.1712-1.2435.14701.03267 1.2693-1.2609-.080617-6.6011 6.3882-.089574 1.2345-1.2382.05058-.070605 1.2424 3.3643 3.4765 1.587.24712.032668-1.2451 1.1718.07904 6.7881-6.5695-.09958-1.2851 1.3157.10854-.15017-1.4063zm5.4904.63756 5.5178 3.662.11697 1.5733 3.5461 3.1804 1.3436-.26925 4.005 5.0673c-2.1056-13.321-14.529-13.214-14.529-13.214zm5.9967 6.4446-.6971.96951-5.6874 5.4493 2.5713 2.3063 4.8438-6.2075.86413-.81828zm-10.735 1.792-2.0117 1.9469 3.5376 3.7389 1.2319-1.2646s.41229-.50269.85728-.24343c.47675-.52329.2898-.63861.2898-.63861zm3.1794 5.2601s-5.985 6.3084-7.0305 7.4072c-1.1838 1.1582-.63598 1.6497-.63598 1.6497s1.8997 1.6934 2.3305 2.0902c.43083.39682.9704.3182 1.5317-.31614.44517-.50308 6.873-8.0785 6.873-8.0785zm4.4845 2.1224c-.12017.0071-.25573.05172-.39887.15333.29235.47757.17752.60383.07429.75874l-1.802 2.4148s2.8486 3.3631 3.9081 4.4244c.96173 1.0253 1.5844.47211 1.5844.47211s1.2012-1.1548 2.0966-2.0244c.64907-.6304-.59277-1.6724-.59277-1.6724l-4.4292-4.3375c-.08219-.10821-.24021-.20098-.44049-.18916z"/></svg>