<svg height="128" viewBox="0 0 33.867 33.867" width="128" xmlns="http://www.w3.org/2000/svg"><path d="m13.35 6.3913c-2.6523-.045075-9.249 4.3084-10.445 4.3041-1.1964-.0043-1.5813.02842-1.5813.02842l.019637 1.3803 2.9905 3.39-.5519-.12868-2.3776-2.2784.05116.90796 5.1599 6.734s3.1871-.65375 4.1047-1.1317c.91758-.47796 2.6838-1.6679 3.5088-1.7038.82499-.03583 1.5402.3027 1.5803.90744.68498.01837 1.1141.01912 1.1141.01912s.42916-.00074 1.1141-.01912c.04008-.60474.75527-.94327 1.5803-.90744s2.5913 1.2258 3.5088 1.7038c.91758.47796 4.1047 1.1317 4.1047 1.1317l5.1599-6.734.09663-1.5141-1.5038 1.5932-.5519.12867 2.1006-2.6701-.0098-.80874s-.38491-.03272-1.5813-.02842-7.793-4.3492-10.445-4.3041-3.253 1.5208-3.253 1.5208.01824 7.7837.01964 8.4041-.33951.56327-.33951.56327-.34093.05713-.33951-.56327c.0014-.6204.01964-8.4041.01964-8.4041s-.60069-1.4758-3.253-1.5208zm19.665 8.0341-5.5562 7.2244-7.3386-1.7343.03772 1.3426 7.3262 1.6118 5.7025-6.9722zm-32.164.0041-.17157 1.4717 5.703 6.9727 7.3257-1.6123.03772-1.3426-7.3386 1.7343zm16.072 5.0581-2.3027.05581-.6258 7.7758 2.9285-2.2758 2.9285 2.2758-.6258-7.7758z"/></svg>