<svg id="Layer_1" data-name="Layer 1" xmlns="http://www.w3.org/2000/svg" viewBox="0 0 100 100">
    <title>icon_cardset_standard</title>
    <path
        d="M21.77,48.55A3.81,3.81,0,0,1,23.92,50l9.9-16.83A3.7,3.7,0,0,0,32,32.52a12.51,12.51,0,0,0-6.66,1.08l-8.7,15.16A12.57,12.57,0,0,1,21.77,48.55Z"></path>
    <path
        d="M92.68,38.9H88.83s-3.34,0-3.44-2S85,31.81,85,31.81L89,26s1.73-2.53.92-4.15c0,0-.51-1.12-4.36-1.12H46.79a3.2,3.2,0,0,0-3,1.42c-1.12,1.73-26.24,44.07-26.24,44.07s-1.22,1.83,1,1.83l1.83-2.33,38.19,1.39s-1.67,3.19,1.82,8.74L24.5,74.74a24.07,24.07,0,0,1-3.88-2.36c-1.36-1.14-2.05-1.37-3-.23s-1.82,2.51-3.26,1.22-3.8-4.71-3.8-6.08,1.37-2.43,3.8-2.28A10.45,10.45,0,0,0,16.9,61.9l5.71-9.7c-1.6-1.51-6.12-.55-7.88-.09L8.59,62.81A5.48,5.48,0,0,0,7.17,69c1.42,4,2.84,7.39,5.17,8.1s4.36,1.12,5.47,0,1.32-1.82,2.33-.81a6.21,6.21,0,0,0,3.65,2.23c1.62.2,42.75,1.52,42.75,1.52a3.08,3.08,0,0,0,1.93-1.32c.71-1.11,24.21-36.37,24.21-36.37A3.12,3.12,0,0,0,92.68,38.9ZM50,51.16s-4.93.65-5.34-4,.81-10.36,2.63-13.4H65.73S57.57,48.52,50,51.16Zm13.91,23.6a2,2,0,0,1-1.42.81c-4.56-4.66-1.72-8.71-1.72-8.71a2.62,2.62,0,0,0,2.84-1.62L84,34.24a7.1,7.1,0,0,0,2.23,7.6S64.31,74.05,63.91,74.76Z"></path>
    <path
        d="M35.39,30.49l4.46-7.57a1.9,1.9,0,0,0-1.47-2.86S33.72,19.35,32,22l-4.28,7.46C30,28.9,34,28.36,35.39,30.49Z"></path>
</svg>