<svg height="128" viewBox="0 0 33.866666 33.866668" width="128" xmlns="http://www.w3.org/2000/svg"><path d="m31.835 4.2163s-3.6972 2.9032-4.5408 2.8536c-.79829-.046958-1.1839-.763-1.8738-2.1616.42559 1.0267.06253 2.9311.06253 2.9311l2.2831 1.3146c.45355.38535-.1988 1.1416-.67024.9679 0 0-1.2405-.74455-1.8609-1.0671-.24813.64513-1.712 1.464-1.712 1.464s1.5631-.22294 1.8113.447c.24813.66995-1.3648 3.5481-1.3648 3.5481s2.1339-2.5808 3.2008-2.4815c1.067.09925 3.3001 3.052 3.3001 3.052s-1.3896-3.722-1.3648-4.64c.02481-.91807 3.2758-1.34 3.2758-1.34s-3.5486.074739-3.5982-.91777c-.04963-.99251 3.052-3.9703 3.052-3.9703zm-6.4146.69195c-.03257-.078558-.06878-.15312-.1111-.22014.04134.084019.07192.1407.1111.22014zm-1.6066 2.8102c-1.8151-.036607-3.0444.92267-3.5786 1.4009-.68476-.50253-1.2656-.63045-1.2656-.63045l-1.7896 1.5436 1.3333.94775-.31729.41031c-.92158-.73614-1.9634-1.3076-3.0794-1.6893-.15715.24949-.43119.40105-.72605.40153-.45001-.000016-.82386-.34705-.85731-.79582-.5571-.096926-1.1213-.14757-1.6867-.15141-4.6884.0044371-8.7757 3.1905-9.9245 7.736.19112.11539.30921.33008.30954.56276-.0004577.32599-.22954.60107-.53537.64286-.059804.43245-.091909.86828-.096118 1.3048.00329 5.3234 4.0824 9.7575 9.387 10.204-.0029-.0092-.0054-.01847-.0072-.02791-.04878-.27804.36204-.61322.91777-.74879.5559-.13562 1.0464-.02016 1.0955.25787.02905.16588-.10701.3609-.3638.52141 1.0805-.08083 2.1413-.33252 3.143-.74569-.09144-.31113.01669-.70933.27544-1.0144.3597-.42391.89113-.53519 1.187-.24856.09953.09715.16308.23228.18345.39016 2.9117-1.8866 4.6709-5.1186 4.6747-8.5881-.0024-.72181-.08102-1.4414-.23461-2.1466-.02688.0038-.05398.0059-.08113.0062-.34893.000205-.63192-.28256-.632-.63149.000193-.24762.14505-.47228.37052-.57464-.32736-.94115-.79026-1.8295-1.3741-2.637.23671-.30125.72754-.89497 1.881-2.1926-.23488-.45168-.55173-.85109-.89194-1.1968 1.67-1.4828 3.8396-1.1539 3.8396-1.1539s-.03531.21056.21032-1.0878c-.50004-.061409-.95415-.060406-1.3668-.068729zm-12.704 2.8055.06976 1.6495s-1.1907.09334-2.5745.72347l-.83199-1.4697c.96268-.43592 2.0722-.74987 3.3367-.9033zm-4.1346 1.3121.91674 1.4289c-2.3775 1.3809-4.8257 4.4807-2.6774 11.401-3.3639-4.1554-2.9217-10.131 1.7606-12.83z"/></svg>