<svg height="128" viewBox="0 0 33.866666 33.866668" width="128" xmlns="http://www.w3.org/2000/svg"><path d="m25.345 3.1348-3.9104 2.0919-1.5462-.09095-1.0609-1.2123-1.3338 1.2728s-7.5169.78162-7.8507 1.5766c-.05511.58068-.31098.96788-.7028 1.1446-.45003.20301-1.0686.087056-1.7074-.3793 0 0-3.4858 1.5155-4.0163 3.2055 6.4264 5.6382 5.0317 13.065 5.0317 13.065s-2.213-1.7886-5.3656-2.6071c4.1832 3.5163 3.9109 5.9114 3.729 6.8208.18188.60626 2.1821 1.3942 5.0012 2.5461.21219-1.6672 1.4248-2.2733 2.4252-3.0918-.42438 1.0003-.2727.84862-.42426 3.0009 2.8191.6972 5.6382-.18199 7.0326-.9095.09094-.93971-1.7582-2.819-3.3042-4.2437.75783-.21219 1.7885.18219 2.9404 1.1219.06063-1.3944.81854-1.9402 2.0614-3.8499-.36376 2.0613.42419 3.759 1.2123 5.4565.33344-.03032.8188.0302 2.8195-3.668-4.1529-4.6379-4.0013-9.2155-4.0013-9.2155l8.6088-5.2741s-.21222-.27332-3.0313.090434c1.0913-3.6376-.27285-3.9104-.27285-3.9104-2.031 6.4264-2.4555 5.396-5.2746 6.2751-.6972-3.5163 2.9404-9.2155 2.9404-9.2155zm-8.2992 3.9812c1.4321.0005672 2.9694.12342 4.6013.41444-.30618 2.2107-1.896 3.0037-4.1072 4.0318-1.6513.76774-5.1563.48731-5.1563.48731l.50281 3.1807s-2.6672-2.1825-3.0613-3.9104c-2.3424.20179-3.2739.42431-5.1837-.63665 0 0 4.6713-3.5703 12.404-3.5672zm-10.673 11.355c-.085739 1.0289.085451 1.1574-.55759 1.9291 0 0 1.3292 1.0291 1.5436 1.372.21435-1.1146.12861-2.7009-.98599-3.3011z"/></svg>