<svg xmlns="http://www.w3.org/2000/svg" viewBox="0 0 100 100">
    <path
        d="M97.48,50.62a17.91,17.91,0,0,0-3.25-8.74,1.26,1.26,0,0,1-.14-1.1c.89-2.48,2.4-5.93,2.17-6.72-.34-1.11-2.78-1-5,0a12.18,12.18,0,0,1-2.75.8,1.22,1.22,0,0,1-.84-.16c-4.11-2.35-11.86-3.37-17.3-2.42a12.4,12.4,0,0,0-1.69.44,1.25,1.25,0,0,1-1.26-.24c-2.1-1.89-5.26-4.49-6.61-4.42-2.11.11-1.44,4.89-1.33,7,0,.77.11,1.49.18,2.09a1.25,1.25,0,0,1-.48,1.14c-1.16.9-2.12,1.71-2.77,2.28a1.26,1.26,0,0,0-.14,1.76L61.08,48a1.26,1.26,0,0,0,1.78.13c2.56-2.25,9.87-8.11,15.73-7.48,7.22.77,9,7.77,9.22,10.66s-2.67,9.23-5.67,10.56S75.48,63,69.14,61,55.7,49.17,51.59,43.28,38.7,31.73,27.92,31.84l-.42,0c-1.27-2.35-4-7.45-4.13-8.47-.23-1.33-1.89-.88-3.34,1-1.17,1.54-3,6.07-3.4,10.75a1.29,1.29,0,0,1-.44.85A32.53,32.53,0,0,0,10,43.73a5.59,5.59,0,0,0-.5,1,1.28,1.28,0,0,1-1,.79l-3.22.31s-4.34.55-2.12,2.89c1.41,1.47,3.7,3,5.34,4.41A1.19,1.19,0,0,1,8.9,54a36,36,0,0,0,2.91,11c2.22,4.22,8.67,7.33,17.33,7.22a20.68,20.68,0,0,0,7.84-2,1.23,1.23,0,0,1,.94,0,8.83,8.83,0,0,1,2.22,1.28c2.23,1.78,4.23,3.67,5.89,3.67s2.67-4.22,1.34-7.33c-.31-.71-.6-1.37-.87-2a1.26,1.26,0,0,1,.41-1.52c.85-.62,1.54-1.15,2-1.52a1.27,1.27,0,0,0,.4-1.45,11.88,11.88,0,0,0-4.77-5.22,1.23,1.23,0,0,0-1.58.23c-3.61,4.11-10.41,7.55-14.59,7.45-4.45-.11-9.23-3.22-10.45-11.11s8.34-12.11,12-12S36.81,42.73,42,46.28,51.48,57.62,55.7,64c3.79,5.69,13.67,8.06,18.71,8.24a1.26,1.26,0,0,1,.84.36,25.5,25.5,0,0,0,4.45,3.73c2.22,1.23,4.56,1.67,5,0a65.07,65.07,0,0,1,1.48-6.69,1.24,1.24,0,0,1,.67-.7c2.53-1.16,4.69-2.47,5.63-3.72C94.81,62.06,97.7,56.28,97.48,50.62Z"></path>
</svg>