<svg id="Layer_1" data-name="Layer 1" xmlns="http://www.w3.org/2000/svg" viewBox="0 0 100 100">
    <title>icon_filter</title>
    <path d="M18.75,32.1H54.3a11.81,11.81,0,0,0,21.42,0h5.53a4.91,4.91,0,0,0,0-9.82H75.87a11.85,11.85,0,0,0-21.71,0H18.75a4.91,4.91,0,0,0,0,9.82Z"></path><path d="M81.25,45.2h-35a11.81,11.81,0,0,0-21.37,0h-6.1a4.92,4.92,0,0,0,0,9.83h5.91a11.85,11.85,0,0,0,21.75,0H81.25a4.92,4.92,0,0,0,0-9.83Z"></path><path d="M81.25,68.13H75.71a11.84,11.84,0,0,0-21.67,0H18.75a4.91,4.91,0,1,0,0,9.82H54.14A11.81,11.81,0,0,0,75.6,78h5.65a4.91,4.91,0,0,0,0-9.82Z"></path>
</svg>